#!OML:ASF X:\für Bonn\!DataBase\2005_08_12_Daniel\c3d\Daniel.ASF
:FULLY-SPECIFIED
:DEGREES
1968
root -10.3031 16.3948 13.4418 -196.055 227.679 -176.536
lowerback 17.9414 -0.706274 -3.71237
upperback 3.99511 -1.92239 -2.6074
thorax -5.72415 -0.958145 -0.235045
lowerneck -4.16356 1.14931 -6.75037
upperneck 8.56586 1.89151 1.41617
head 3.44739 0.758238 1.73837
rclavicle 1.22153e-013 -4.77083e-015
rhumerus -50.6844 0.672818 -99.0164
rradius 63.6919
rwrist -4.49228
rhand -17.3302 30.6962
rfingers 7.12502
rthumb 8.9167 0.904596
lclavicle 1.22153e-013 -4.77083e-015
lhumerus -46.807 8.49764 88.8182
lradius 108.512
lwrist 10.8559
lhand -15.2737 -6.62139
lfingers 7.12502
lthumb 10.9008 23.0757
rfemur -16.6662 -1.66809 16.4365
rtibia 84.4918
rfoot -9.14617 0.625711
rtoes -6.33393
lfemur -17.2635 10.638 -24.0797
ltibia 59.7999
lfoot -24.9366 -9.48478
ltoes -2.99473
1969
root -10.468 16.4405 13.6426 -195.649 227.622 -176.772
lowerback 17.4666 -1.0231 -3.58304
upperback 3.94667 -2.28507 -2.58964
thorax -5.51841 -1.13837 -0.218782
lowerneck -3.89829 1.13082 -6.90046
upperneck 8.74584 1.84119 1.58563
head 3.46051 0.729336 1.81873
rclavicle -1.08089e-014 -3.49861e-014
rhumerus -50.5994 0.129253 -97.8415
rradius 61.4766
rwrist -3.36052
rhand -17.3421 30.1398
rfingers 7.12502
rthumb 8.9052 0.347755
lclavicle -1.08089e-014 -3.49861e-014
lhumerus -44.413 9.70217 90.3987
lradius 108.664
lwrist 10.9281
lhand -16.3163 -6.41987
lfingers 7.12502
lthumb 9.89504 23.3276
rfemur -18.4658 -0.993897 17.0637
rtibia 83.5015
rfoot -9.53835 0.785196
rtoes -6.33909
lfemur -16.4648 10.7441 -23.8387
ltibia 59.7617
lfoot -25.1625 -9.87749
ltoes -2.79494
1970
root -10.6364 16.4941 13.8447 -195.272 227.58 -177.082
lowerback 17.0386 -1.32373 -3.3796
upperback 3.90169 -2.61884 -2.5809
thorax -5.33887 -1.30542 -0.263407
lowerneck -3.54941 1.11253 -6.89774
upperneck 8.88687 1.78137 1.65024
head 3.44493 0.697126 1.83391
rclavicle -1.86361e-015 9.54166e-015
rhumerus -50.5744 -0.341902 -96.7074
rradius 59.3621
rwrist -2.05176
rhand -17.374 29.5083
rfingers 7.12502
rthumb 8.87442 -0.285061
lclavicle -1.86361e-015 9.54166e-015
lhumerus -42.0845 10.3732 92.0359
lradius 108.604
lwrist 11.2991
lhand -17.4949 -6.50335
lfingers 7.12502
lthumb 8.75779 23.295
rfemur -19.9366 -0.305681 17.7226
rtibia 82.1573
rfoot -9.89751 0.966414
rtoes -6.78465
lfemur -15.4522 10.8456 -23.5173
ltibia 59.555
lfoot -25.2934 -10.2094
ltoes -2.74585
1971
root -10.8071 16.5555 14.0495 -195.013 227.498 -177.281
lowerback 16.5725 -1.62182 -3.28069
upperback 3.8881 -2.96661 -2.56646
thorax -5.10102 -1.4798 -0.245961
lowerneck -3.19608 1.10024 -7.01633
upperneck 8.99261 1.73148 1.77572
head 3.41576 0.668743 1.89142
rclavicle 3.11346e-014 -9.54166e-015
rhumerus -50.5633 -0.660497 -95.5176
rradius 57.3469
rwrist -0.624419
rhand -17.4214 28.8167
rfingers 7.12502
rthumb 8.82869 -0.978653
lclavicle 3.11346e-014 -9.54166e-015
lhumerus -39.7011 10.522 93.6779
lradius 108.305
lwrist 11.8487
lhand -18.7024 -6.74779
lfingers 7.12502
lthumb 7.59239 23.0959
rfemur -21.1538 0.378738 18.2538
rtibia 80.5008
rfoot -10.1578 1.18045
rtoes -7.72923
lfemur -14.2795 10.8423 -23.3077
ltibia 59.1228
lfoot -25.2754 -10.4096
ltoes -2.72994
1972
root -10.9825 16.6227 14.255 -194.892 227.362 -177.46
lowerback 16.171 -1.91439 -3.16573
upperback 3.93276 -3.31133 -2.59291
thorax -4.84004 -1.65487 -0.284776
lowerneck -3.04379 1.06179 -7.12251
upperneck 9.26387 1.65958 1.92257
head 3.48441 0.626918 1.95951
rclavicle -1.75676e-014 -2.06736e-014
rhumerus -50.4838 -0.968063 -94.3645
rradius 55.3813
rwrist 0.657356
rhand -17.4653 28.1181
rfingers 7.12502
rthumb 8.78631 -1.67902
lclavicle -1.75676e-014 -2.06736e-014
lhumerus -37.5728 9.99436 95.1253
lradius 108.164
lwrist 12.6894
lhand -19.8179 -6.99973
lfingers 7.12502
lthumb 6.51557 22.88
rfemur -22.0069 0.96949 18.7385
rtibia 78.5363
rfoot -10.2714 1.44568
rtoes -9.22294
lfemur -12.8075 10.6899 -23.1284
ltibia 58.4249
lfoot -25.1018 -10.5231
ltoes -2.58845
1973
root -11.1596 16.7008 14.4627 -194.783 227.223 -177.634
lowerback 15.7714 -2.21449 -3.07759
upperback 3.94814 -3.6696 -2.57807
thorax -4.60785 -1.8353 -0.265929
lowerneck -2.78316 1.05147 -7.31395
upperneck 9.48209 1.62378 2.02654
head 3.51235 0.598664 2.02733
rclavicle 2.26615e-014 3.65764e-014
rhumerus -50.6586 -1.03654 -93.1679
rradius 53.5211
rwrist 1.74917
rhand -17.5633 27.7068
rfingers 7.12502
rthumb 8.69175 -2.09428
lclavicle 2.26615e-014 3.65764e-014
lhumerus -35.829 8.93305 96.3866
lradius 108.048
lwrist 13.3492
lhand -20.8146 -7.37692
lfingers 7.12502
lthumb 5.55336 22.5303
rfemur -22.6321 1.57924 19.1776
rtibia 76.2661
rfoot -10.1937 1.78104
rtoes -10.6501
lfemur -11.1891 10.4516 -22.9752
ltibia 57.4966
lfoot -24.8531 -10.5709
ltoes -2.61781
1974
root -11.3389 16.7863 14.6692 -194.478 227.054 -177.843
lowerback 15.1973 -2.52272 -2.94163
upperback 3.92129 -4.02502 -2.57628
thorax -4.33088 -2.01474 -0.299765
lowerneck -2.52507 1.02254 -7.48901
upperneck 9.63911 1.55905 2.15615
head 3.52119 0.559106 2.0992
rclavicle 4.67765e-014 -1.19271e-014
rhumerus -50.9774 -1.10621 -92.0056
rradius 51.7106
rwrist 2.6626
rhand -17.6843 27.4554
rfingers 7.12502
rthumb 8.57503 -2.3505
lclavicle 4.67765e-014 -1.19271e-014
lhumerus -34.6338 7.00364 97.184
lradius 108.138
lwrist 14.0917
lhand -21.7285 -7.64123
lfingers 7.12502
lthumb 4.6709 22.2873
rfemur -23.2906 2.23895 19.6028
rtibia 73.7392
rfoot -9.81525 2.10679
rtoes -11.256
lfemur -9.69587 10.1209 -22.8724
ltibia 56.3956
lfoot -24.4939 -10.4813
ltoes -2.58801
1975
root -11.5203 16.8716 14.8763 -194.192 226.872 -178.018
lowerback 14.598 -2.8541 -2.86091
upperback 3.89431 -4.41883 -2.54819
thorax -4.03463 -2.21314 -0.275772
lowerneck -2.34656 1.01392 -7.73571
upperneck 9.83204 1.53227 2.27336
head 3.5564 0.534134 2.18347
rclavicle 4.59938e-014 2.8625e-014
rhumerus -51.3042 -1.03007 -90.8807
rradius 49.8811
rwrist 3.4395
rhand -17.7751 27.3746
rfingers 7.12502
rthumb 8.48733 -2.43485
lclavicle 4.59938e-014 2.8625e-014
lhumerus -33.9201 4.67856 97.597
lradius 108.41
lwrist 14.7412
lhand -22.1671 -7.84295
lfingers 7.12502
lthumb 4.24746 22.0944
rfemur -23.752 2.93476 19.929
rtibia 70.9417
rfoot -9.29641 2.49134
rtoes -11.5331
lfemur -8.14528 9.79753 -22.8144
ltibia 55.1693
lfoot -24.2138 -10.306
ltoes -2.86069
1976
root -11.7024 16.9565 15.084 -193.823 226.683 -178.207
lowerback 13.9565 -3.17871 -2.72251
upperback 3.8282 -4.79563 -2.51008
thorax -3.7606 -2.40263 -0.284289
lowerneck -2.26977 0.987865 -8.09264
upperneck 10.083 1.49118 2.44843
head 3.63337 0.498671 2.31055
rclavicle 4.82426e-014 7.15625e-015
rhumerus -51.5998 -1.00915 -89.6919
rradius 48.0294
rwrist 4.32749
rhand -17.8435 27.4987
rfingers 7.12502
rthumb 8.42134 -2.31336
lclavicle 4.82426e-014 7.15625e-015
lhumerus -33.4781 2.09542 97.7317
lradius 108.71
lwrist 15.2178
lhand -21.9403 -8.16966
lfingers 7.12502
lthumb 4.46637 21.7633
rfemur -24.1267 3.56254 20.227
rtibia 67.8981
rfoot -8.64306 2.79763
rtoes -12.2362
lfemur -6.65116 9.43753 -22.7869
ltibia 53.8668
lfoot -23.9284 -10.0556
ltoes -3.35537
1977
root -11.8848 17.0392 15.2921 -193.439 226.454 -178.455
lowerback 13.3394 -3.50908 -2.47204
upperback 3.77947 -5.17026 -2.50033
thorax -3.49449 -2.59181 -0.39036
lowerneck -2.28786 0.938157 -8.37441
upperneck 10.412 1.42152 2.62976
head 3.75868 0.450039 2.42887
rclavicle 3.4309e-014 -9.54166e-015
rhumerus -51.7636 -0.996436 -88.5383
rradius 46.1056
rwrist 5.16408
rhand -17.9202 27.6717
rfingers 7.12502
rthumb 8.34737 -2.14332
lclavicle 3.4309e-014 -9.54166e-015
lhumerus -32.9816 -0.601396 97.5577
lradius 108.864
lwrist 15.4067
lhand -20.8062 -8.38836
lfingers 7.12502
lthumb 5.56143 21.5187
rfemur -24.3362 4.13558 20.5285
rtibia 64.6626
rfoot -7.84664 2.95859
rtoes -12.9631
lfemur -5.11565 9.04132 -22.7179
ltibia 52.5131
lfoot -23.574 -9.84515
ltoes -3.44749
1978
root -12.0706 17.1203 15.5008 -192.977 226.259 -178.732
lowerback 12.645 -3.80638 -2.19376
upperback 3.69166 -5.49886 -2.47975
thorax -3.23121 -2.75744 -0.517201
lowerneck -2.18275 0.879558 -8.64805
upperneck 10.6378 1.32662 2.81745
head 3.82616 0.391465 2.5437
rclavicle -4.00551e-014 0
rhumerus -51.9855 -1.01317 -87.3974
rradius 44.1763
rwrist 6.1998
rhand -18.0264 27.9148
rfingers 7.12502
rthumb 8.24484 -1.90435
lclavicle -4.00551e-014 0
lhumerus -32.4354 -3.29677 97.1754
lradius 108.936
lwrist 15.4865
lhand -18.7753 -8.82488
lfingers 7.12502
lthumb 7.52203 21.0214
rfemur -24.4695 4.7053 20.8229
rtibia 61.2752
rfoot -6.76543 3.06099
rtoes -13.7101
lfemur -3.6104 8.63593 -22.6585
ltibia 51.1198
lfoot -23.2428 -9.51934
ltoes -3.99499
1979
root -12.2557 17.1937 15.7084 -192.566 226.018 -178.949
lowerback 11.9589 -4.12566 -1.97876
upperback 3.6091 -5.86858 -2.44384
thorax -2.96087 -2.94331 -0.59287
lowerneck -2.08196 0.832887 -8.90191
upperneck 10.8223 1.25505 2.91337
head 3.8788 0.342244 2.62353
rclavicle 2.01642e-014 -1.78906e-014
rhumerus -52.1238 -0.945568 -86.2143
rradius 42.1924
rwrist 7.33696
rhand -18.1493 28.2769
rfingers 7.12502
rthumb 8.12621 -1.54689
lclavicle 2.01642e-014 -1.78906e-014
lhumerus -31.9597 -5.98286 96.5562
lradius 109.066
lwrist 15.2483
lhand -16.2313 -9.42307
lfingers 7.12502
lthumb 9.97697 20.3205
rfemur -24.518 5.17707 21.0193
rtibia 57.8415
rfoot -5.51641 3.10957
rtoes -14.771
lfemur -2.113 8.17802 -22.6667
ltibia 49.7044
lfoot -22.8566 -9.16764
ltoes -4.30806
1980
root -12.4403 17.2647 15.9183 -192.099 225.746 -179.154
lowerback 11.2406 -4.43898 -1.72155
upperback 3.45234 -6.23064 -2.42843
thorax -2.75828 -3.12371 -0.719108
lowerneck -1.83504 0.793856 -9.07233
upperneck 10.9716 1.17146 3.02463
head 3.89099 0.290915 2.6898
rclavicle 3.2009e-014 7.55382e-015
rhumerus -52.3675 -0.918317 -85.0405
rradius 40.2533
rwrist 8.59917
rhand -18.4425 28.5927
rfingers 7.12502
rthumb 7.84328 -1.24181
lclavicle 3.2009e-014 7.55382e-015
lhumerus -31.671 -8.73284 95.7822
lradius 109.324
lwrist 14.906
lhand -13.5054 -10.1935
lfingers 7.12502
lthumb 12.606 19.4061
rfemur -24.553 5.59916 21.1325
rtibia 54.3689
rfoot -4.17788 3.12932
rtoes -15.7546
lfemur -0.688044 7.71963 -22.7175
ltibia 48.2524
lfoot -22.4443 -8.74683
ltoes -4.5434
1981
root -12.6277 17.3309 16.1291 -191.642 225.491 -179.385
lowerback 10.5387 -4.74934 -1.49282
upperback 3.3028 -6.59445 -2.35393
thorax -2.54878 -3.30513 -0.773873
lowerneck -1.60301 0.765992 -9.37361
upperneck 11.4107 1.07469 3.37629
head 3.60262 0.251152 2.59633
rclavicle -2.28385e-014 1.19271e-014
rhumerus -52.5549 -0.767394 -83.8284
rradius 38.3702
rwrist 9.95155
rhand -18.767 28.8715
rfingers 7.12502
rthumb 7.53001 -0.974517
lclavicle -2.28385e-014 1.19271e-014
lhumerus -31.412 -11.3721 94.9982
lradius 109.626
lwrist 14.4199
lhand -10.9055 -11.1256
lfingers 7.12502
lthumb 15.1116 18.3028
rfemur -24.4495 6.06273 21.2525
rtibia 50.9069
rfoot -2.82462 2.96263
rtoes -16.8448
lfemur 0.813229 7.22462 -22.7674
ltibia 46.7343
lfoot -22.0039 -8.27523
ltoes -4.85093
1982
root -12.8144 17.3955 16.3417 -191.234 225.18 -179.516
lowerback 9.84217 -5.02575 -1.3235
upperback 3.11018 -6.92359 -2.26891
thorax -2.37911 -3.46854 -0.792794
lowerneck -1.36846 0.705044 -9.68272
upperneck 11.5776 0.961123 3.53638
head 3.61944 0.180929 2.69236
rclavicle -5.16467e-014 9.54166e-015
rhumerus -52.8514 -0.597134 -82.5653
rradius 36.6338
rwrist 11.2594
rhand -19.1876 29.0649
rfingers 7.12502
rthumb 7.12409 -0.795186
lclavicle -5.16467e-014 9.54166e-015
lhumerus -31.1708 -14.0398 94.2188
lradius 109.865
lwrist 13.9913
lhand -8.70499 -12.2299
lfingers 7.12502
lthumb 17.2304 17.0262
rfemur -24.2719 6.45154 21.2629
rtibia 47.4687
rfoot -1.43461 2.54404
rtoes -17.7543
lfemur 2.31548 6.5206 -23.0065
ltibia 45.1308
lfoot -21.5233 -7.60719
ltoes -5.01621
